<svg width="174" height="174" viewBox="0 0 174 174" fill="none" xmlns="http://www.w3.org/2000/svg">
<rect x="0.675781" y="0.413757" width="173" height="173" rx="86.5" fill="url(#paint0_linear)"/>
<path d="M44.6279 109.557V65.9137C44.6279 65.9137 44.6279 62.8094 47.641 61.1659C50.654 59.5224 83.7975 39.7094 83.7975 39.7094C83.7975 39.7094 87.9975 36.879 92.3801 39.7094C92.3801 39.7094 131.732 61.5311 131.093 62.8094L113.654 73.0355C113.654 73.0355 110.367 65.3659 101.693 61.1659C91.3758 56.1442 74.5758 55.5051 62.5236 73.3094C62.5236 73.3094 54.6714 85.6355 62.7975 102.162L45.4497 111.931C45.4497 111.931 44.6279 111.383 44.6279 109.557Z" fill="white"/>
<path d="M100.598 80.3398C98.0411 76.0485 93.3846 73.1268 87.9976 73.1268C79.9628 73.1268 73.3889 79.7007 73.3889 87.7355C73.3889 90.292 74.028 92.6659 75.215 94.7659L100.598 80.3398Z" fill="white"/>
<path d="M75.1235 94.6746C77.6801 98.9659 82.3366 101.888 87.7235 101.888C95.7583 101.888 102.332 95.3138 102.332 87.279C102.332 84.7225 101.693 82.3485 100.506 80.2485L75.1235 94.6746Z" fill="white"/>
<path d="M131.093 62.8094L88.728 87.0051L130.819 111.749C132.28 110.836 131.093 62.8094 131.093 62.8094ZM117.945 89.2877H114.385V92.8486H110.55V89.2877H106.898V85.5442H110.55V81.8007H114.385V85.5442H117.945V89.2877ZM130.363 89.2877H126.802V92.8486H122.967V89.2877H119.315V85.5442H122.967V81.8007H126.802V85.5442H130.363V89.2877Z" fill="white"/>
<path d="M62.7062 102.07C62.7062 102.07 71.1062 117.592 88.728 116.77C106.35 115.949 113.654 101.614 113.654 101.614L130.728 111.475C130.728 111.475 134.471 112.205 92.7454 134.94C92.7454 134.94 88.2715 137.953 83.4323 134.94C83.4323 134.94 45.7236 113.849 45.4497 111.84C45.4497 111.84 62.7062 102.07 62.7062 102.07Z" fill="white"/>
<defs>
<linearGradient id="paint0_linear" x1="0.675781" y1="173.413" x2="173.676" y2="173.413" gradientUnits="userSpaceOnUse">
<stop stop-color="#19316C"/>
<stop offset="1" stop-color="#01B3C9"/>
</linearGradient>
</defs>
</svg>
